<svg width="31" height="30" viewBox="0 0 31 30" fill="none" xmlns="http://www.w3.org/2000/svg">
<path d="M9.8246 24.1749H7.42455C3.74955 23.9124 2.09961 21.0874 2.09961 18.5749C2.09961 16.0624 3.74956 13.2249 7.36206 12.9749C7.87456 12.9249 8.32455 13.3249 8.36205 13.8499C8.39955 14.3624 8.01211 14.8124 7.48711 14.8499C5.06211 15.0249 3.97461 16.8499 3.97461 18.5874C3.97461 20.3249 5.06211 22.1499 7.48711 22.3249H9.8246C10.3371 22.3249 10.7621 22.7499 10.7621 23.2624C10.7621 23.7749 10.3371 24.1749 9.8246 24.1749Z" fill="#27272E"/>
<path d="M21.3376 24.175C21.3126 24.175 21.3001 24.175 21.2751 24.175C20.7626 24.175 20.2877 23.75 20.2877 23.2375C20.2877 22.7 20.6876 22.3 21.2126 22.3C22.7501 22.3 24.1251 21.7625 25.2001 20.8C27.1501 19.1 27.2751 16.65 26.7501 14.925C26.2251 13.2125 24.7626 11.25 22.2126 10.9375C21.8001 10.8875 21.4751 10.575 21.4001 10.1625C20.9001 7.16251 19.2876 5.0875 16.8376 4.3375C14.3126 3.55 11.3626 4.325 9.5251 6.25C7.7376 8.1125 7.32511 10.725 8.36261 13.6C8.53761 14.0875 8.28767 14.625 7.80017 14.8C7.31267 14.975 6.77514 14.725 6.60014 14.2375C5.33764 10.7125 5.91266 7.3375 8.17516 4.9625C10.4877 2.5375 14.2001 1.57499 17.3876 2.54999C20.3126 3.44999 22.3751 5.8625 23.1251 9.2125C25.6751 9.7875 27.7251 11.725 28.5376 14.4C29.4251 17.3125 28.6251 20.3125 26.4376 22.2125C25.0501 23.4625 23.2376 24.175 21.3376 24.175Z" fill="#27272E"/>
<path d="M15.5 27.8501C12.9875 27.8501 10.6375 26.5126 9.35002 24.3501C9.21252 24.1376 9.07502 23.8876 8.96252 23.6126C8.53752 22.7251 8.3125 21.7126 8.3125 20.6626C8.3125 16.7001 11.5375 13.4751 15.5 13.4751C19.4625 13.4751 22.6875 16.7001 22.6875 20.6626C22.6875 21.7251 22.4625 22.7251 22.0125 23.6501C21.9125 23.8876 21.775 24.1376 21.625 24.3751C20.3625 26.5126 18.0125 27.8501 15.5 27.8501ZM15.5 15.3501C12.575 15.3501 10.1875 17.7376 10.1875 20.6626C10.1875 21.4376 10.35 22.1626 10.6625 22.8251C10.7625 23.0376 10.85 23.2126 10.95 23.3751C11.9 24.9876 13.6375 25.9751 15.4875 25.9751C17.3375 25.9751 19.075 24.9876 20.0125 23.4001C20.125 23.2126 20.225 23.0376 20.3 22.8626C20.6375 22.1751 20.8 21.4501 20.8 20.6751C20.8125 17.7376 18.425 15.3501 15.5 15.3501Z" fill="#27272E"/>
<path d="M14.7871 22.8376C14.5496 22.8376 14.3122 22.7501 14.1247 22.5626L12.8871 21.325C12.5246 20.9625 12.5246 20.3625 12.8871 20C13.2496 19.6375 13.8496 19.6375 14.2121 20L14.8122 20.6L16.8121 18.75C17.1996 18.4 17.7871 18.425 18.1371 18.8C18.4871 19.175 18.4622 19.7751 18.0872 20.1251L15.4246 22.5876C15.2371 22.7501 15.0121 22.8376 14.7871 22.8376Z" fill="#27272E"/>
</svg>
