<svg width="91" height="29" viewBox="0 0 91 29" fill="none" xmlns="http://www.w3.org/2000/svg">
<g style="mix-blend-mode:multiply" opacity="0.8">
<circle cx="7.67212" cy="4.62476" r="2.87134" fill="#00BB56"/>
</g>
<path d="M41.6025 24.1293V23.9194L41.4081 23.9985C40.9302 24.193 40.4303 24.3336 39.9082 24.4202C39.3782 24.508 38.9771 24.5506 38.7006 24.5506C37.9876 24.5506 37.4311 24.4001 37.0184 24.1127C36.5968 23.8191 36.2808 23.4318 36.0692 22.9477C35.8544 22.4562 35.7133 21.8865 35.6479 21.2366C35.5819 20.5578 35.5488 19.8345 35.5488 19.0665V9.19014C35.5488 8.95617 35.3591 8.7665 35.1252 8.7665H31.632C31.3981 8.7665 31.2084 8.95617 31.2084 9.19014V19.3974V19.4005V19.4036V19.4067V19.4098V19.4129V19.416V19.4191V19.4222V19.4253V19.4284V19.4315V19.4346V19.4377V19.4408V19.4439V19.447V19.4502V19.4533V19.4564V19.4595V19.4626V19.4657V19.4688V19.4719V19.475V19.4781V19.4812V19.4843V19.4875V19.4906V19.4937V19.4968V19.4999V19.503V19.5061V19.5092V19.5123V19.5154V19.5186V19.5217V19.5248V19.5279V19.531V19.5341V19.5372V19.5403V19.5435V19.5466V19.5497V19.5528V19.5559V19.559V19.5622V19.5653V19.5684V19.5715V19.5746V19.5777V19.5809V19.584V19.5871V19.5902V19.5933V19.5964V19.5996V19.6027V19.6058V19.6089V19.612V19.6152V19.6183V19.6214V19.6245V19.6276V19.6308V19.6339V19.637V19.6401V19.6432V19.6464V19.6495V19.6526V19.6557V19.6589V19.662V19.6651V19.6682V19.6714V19.6745V19.6776V19.6807V19.6839V19.687V19.6901V19.6932V19.6964V19.6995V19.7026V19.7057V19.7089V19.712V19.7151V19.7182V19.7214V19.7245V19.7276V19.7308V19.7339V19.737V19.7402V19.7433V19.7464V19.7495V19.7527V19.7558V19.7589V19.7621V19.7652V19.7683V19.7715V19.7746V19.7777V19.7809V19.784V19.7871V19.7903V19.7934V19.7965V19.7997V19.8028V19.8059V19.8091V19.8122V19.8153V19.8185V19.8216V19.8248V19.8279V19.831V19.8342V19.8373V19.8404V19.8436V19.8467V19.8499V19.853V19.8561V19.8593V19.8624V19.8656V19.8687V19.8718V19.875V19.8781V19.8813V19.8844V19.8875V19.8907V19.8938V19.897V19.9001V19.9033V19.9064V19.9095V19.9127V19.9158V19.919V19.9221V19.9253V19.9284V19.9316V19.9347V19.9378V19.941V19.9441V19.9473V19.9504V19.9536V19.9567V19.9599V19.963V19.9662V19.9693V19.9725V19.9756V19.9788V19.9819V19.9851V19.9882V19.9914V19.9945V19.9977V20.0008V20.004V20.0071V20.0103V20.0134V20.0166V20.0197V20.0229V20.026V20.0292V20.0323V20.0355V20.0386V20.0418V20.0449V20.0481V20.0513V20.0544V20.0576V20.0607V20.0639V20.067V20.0702V20.0733V20.0765V20.0797V20.0828V20.086V20.0891V20.0923V20.0955V20.0986V20.1018V20.1049V20.1081V20.1112V20.1144V20.1176V20.1207V20.1239V20.1271V20.1302V20.1334V20.1365V20.1397V20.1429V20.146V20.1492V20.1523V20.1555V20.1587V20.1618V20.165V20.1682V20.1713V20.1745V20.1777V20.1808V20.184V20.1872V20.1903V20.1935V20.1967V20.1998V20.203V20.2062V20.2093V20.2125V20.2157V20.2188V20.222V20.2252V20.2283V20.2315V20.2347V20.2378V20.241V20.2442V20.2474V20.2505V20.2537V20.2569V20.26V20.2632V20.2664V20.2696V20.2727V20.2759V20.2791V20.2822V20.2854V20.2886V20.2918V20.2949V20.2981V20.3013V20.3045V20.3076V20.3108V20.314V20.3172V20.3203V20.3235V20.3267V20.3299V20.3331V20.3362V20.3394V20.3426V20.3458V20.3489V20.3521V20.3553V20.3585V20.3617V20.3648V20.368V20.3712V20.3744V20.3776V20.3807V20.3839V20.3871V20.3903V20.3935V20.3967V20.3998V20.403V20.4062V20.4094V20.4126V20.4158V20.4189V20.4221V20.4253V20.4285V20.4317V20.4349V20.438V20.4412V20.4444V20.4476V20.4508V20.454V20.4572V20.4604V20.4635V20.4667V20.4699V20.4731V20.4763V20.4795V20.4827V20.4859V20.4891V20.4922V20.4954V20.4986V20.5018V20.505V20.5082V20.5114V20.5146V20.5178V20.521V20.5242V20.5273V20.5305V20.5337V20.5369V20.5401V20.5433V20.5465V20.5497V20.5529V20.5561V20.5593V20.5625V20.5657V20.5689V20.5721V20.5753V20.5785V20.5817V20.5849V20.5881V20.5913V20.5945V20.5977V20.6009V20.604V20.6072V20.6104V20.6136V20.6168V20.62V20.6232V20.6264V20.6296V20.6328V20.6361V20.6393V20.6425V20.6457V20.6489V20.6521V20.6553V20.6585V20.6617V20.6649V20.6681V20.6713V20.6745V20.6777V20.6809V20.6841V20.6873V20.6905V20.6937V20.6969V20.7001V20.7033V20.7065V20.7098V20.713V20.7162V20.7194V20.7226V20.7258V20.729V20.7322V20.7354V20.7386V20.7418V20.745V20.7483V20.7515V20.7547V20.7579V20.7611V20.7643V20.7675V20.7707V20.7739V20.7772V20.7804V20.7836V20.7868V20.79V20.7932V20.7964V20.7997V20.8029V20.8061V20.8093V20.8125V20.8157V20.8189V20.8222V20.8254V20.8286V20.8318V20.835V20.8382V20.8415V20.8447V20.8479V20.8511V20.8543V20.8576V20.8608V20.864V20.8672V20.8704V20.8736V20.8769V20.8801V20.8833V20.8865V20.8898V20.893V20.8962V20.8994V20.9026V20.9059V20.9091V20.9123V20.9155V20.9188V20.922V20.9252V20.9284V20.9317V20.9349V20.9381V20.9413V20.9446V20.9478V20.951V20.9542V20.9575V20.9607V20.9639V20.9671V20.9704V20.9736V20.9768V20.9801V20.9833V20.9865V20.9897V20.993V20.9962V20.9994V21.0027V21.0059V21.0091V21.0123V21.0156V21.0188H31.2083L31.2085 21.0245C31.2309 21.5817 31.2869 22.1388 31.3765 22.6958L31.3763 22.6958L31.3777 22.7023C31.4906 23.2414 31.6599 23.7691 31.8855 24.2851L31.8854 24.2851L31.8864 24.2873C32.1152 24.788 32.4243 25.2322 32.8133 25.6192C33.1493 25.9534 33.4858 26.2548 33.8229 26.523C34.1597 26.7911 34.5079 27.0369 34.8674 27.2605L34.8672 27.2608L34.8761 27.2655C35.2638 27.4697 35.6742 27.6172 36.107 27.7082C36.5414 27.8216 37.0293 27.8774 37.5697 27.8774C38.2508 27.8774 38.931 27.7644 39.6098 27.5393L39.6098 27.5393L39.6124 27.5384C40.2463 27.3146 40.8345 27.0626 41.3766 26.7822C41.517 26.7096 41.6025 26.5646 41.6025 26.4089V24.1293ZM47.0243 9.19014C47.0243 8.95617 46.8346 8.7665 46.6007 8.7665H43.1075C42.8735 8.7665 42.6839 8.95617 42.6839 9.19014V25.6515V27.2883C42.6839 27.5223 42.8735 27.7119 43.1075 27.7119H46.6007C46.8346 27.7119 47.0243 27.5223 47.0243 27.2883V9.19014Z" fill="#253A7B" stroke="#253A7B" stroke-width="0.282427"/>
<path d="M86.3343 21.9182V9.89504H88.8898C89.1238 9.89504 89.3135 9.70537 89.3135 9.4714V7.32537C89.3135 7.0914 89.1238 6.90173 88.8898 6.90173H86.3343V2.2712C86.3343 2.03723 86.1446 1.84756 85.9107 1.84756H82.4702C82.2363 1.84756 82.0466 2.03723 82.0466 2.2712V6.90173H80.0207C79.7867 6.90173 79.5971 7.0914 79.5971 7.32537V9.4714C79.5971 9.70537 79.7867 9.89504 80.0207 9.89504H82.0466V21.6868C82.0466 22.0226 82.069 22.4895 82.1132 23.0857L82.1131 23.0857L82.1137 23.0909C82.181 23.6959 82.3154 24.3218 82.5164 24.9685L82.5163 24.9686L82.5183 24.9742C82.7443 25.6062 83.0719 26.1928 83.5005 26.7334L83.5005 26.7334L83.5024 26.7357C83.9463 27.2725 84.5632 27.6064 85.3409 27.7435C85.5902 27.7887 85.8824 27.8223 86.2168 27.8445L86.2174 27.8446C86.5732 27.8668 86.9182 27.8779 87.2524 27.8779C87.585 27.8779 87.9175 27.8669 88.2501 27.8448C88.6032 27.8447 88.9038 27.8337 89.1509 27.8113C89.4411 27.789 89.7312 27.7555 90.0212 27.711L90.141 27.6926V27.5714V25.125V24.9838H89.9998C89.4977 24.9838 89.018 24.962 88.5605 24.9186C88.1386 24.855 87.7494 24.7181 87.3918 24.5083C87.0649 24.3038 86.8067 24.0064 86.6186 23.6098C86.4328 23.2181 86.3343 22.658 86.3343 21.9182Z" fill="#253A7B" stroke="#253A7B" stroke-width="0.282427"/>
<path d="M76.0384 5.17466L76.0384 5.17469L76.0408 5.17225C76.5283 4.68185 76.7731 4.083 76.7731 3.38402C76.7731 2.68503 76.5283 2.08618 76.0408 1.59578C75.5533 1.10534 74.9575 0.858787 74.2619 0.858787C73.5868 0.858787 73.0025 1.10637 72.5159 1.59578C72.0284 2.08618 71.7836 2.68503 71.7836 3.38402C71.7836 4.06017 72.0168 4.6468 72.4806 5.13667L72.4806 5.1367L72.483 5.13914C72.9706 5.62957 73.5663 5.87613 74.2619 5.87613C74.9554 5.87613 75.5503 5.6422 76.0384 5.17466ZM75.9874 28.16C76.2214 28.16 76.411 27.9704 76.411 27.7364V9.62648C76.411 9.39251 76.2214 9.20284 75.9874 9.20284H72.5364C72.3024 9.20284 72.1128 9.39251 72.1128 9.62648V27.7364C72.1128 27.9704 72.3024 28.16 72.5364 28.16H75.9874Z" fill="#253A7B" stroke="#253A7B" stroke-width="0.282427"/>
<path d="M51.402 13.7243L51.402 13.7243L51.4012 13.7264C50.929 14.9134 50.6957 16.3728 50.6957 18.0998C50.6957 19.4989 50.8964 20.9082 51.2971 22.3274L51.2973 22.3279C51.6997 23.7308 52.3271 24.9158 53.182 25.8792L53.1833 25.8807C53.8589 26.6209 54.6271 27.1618 55.4879 27.5002L55.4879 27.5003L55.492 27.5018C56.3678 27.8149 57.2559 27.9718 58.1558 27.9718C58.9393 27.9718 59.6798 27.8826 60.3767 27.7035L60.3767 27.7035L60.3797 27.7027C61.0281 27.5211 61.6054 27.3021 62.1108 27.0451C62.2525 26.9731 62.3373 26.8275 62.3373 26.6725V23.4105V23.0348L62.0899 23.3175C61.3644 24.1464 60.4861 24.5558 59.4474 24.5558C58.8332 24.5558 58.2625 24.398 57.7327 24.0816C57.2222 23.7637 56.7842 23.3282 56.4193 22.7723C56.0526 22.2137 55.7601 21.5671 55.5427 20.8311C55.326 20.0755 55.2171 19.2642 55.2171 18.3967C55.2171 17.5277 55.3153 16.715 55.5107 15.958C55.7064 15.2001 55.9773 14.5317 56.3223 13.9514C56.6875 13.3742 57.1252 12.929 57.6343 12.6121L57.6344 12.6121L57.6378 12.6098C58.1428 12.2745 58.7223 12.1056 59.3812 12.1056C59.9347 12.1056 60.4308 12.2221 60.8724 12.4524C61.3216 12.6868 61.7286 12.996 62.0937 13.381L62.3373 13.638V13.2838V9.94882C62.3373 9.79962 62.2587 9.65779 62.1236 9.58374C61.6609 9.32991 61.1442 9.13246 60.5744 8.99058C59.9442 8.83367 59.2814 8.7555 58.5863 8.7555C57.6857 8.7555 56.7648 8.9237 55.8244 9.25812C54.898 9.57333 54.0528 10.1017 53.2888 10.8403C52.5217 11.5819 51.8936 12.5447 51.402 13.7243ZM67.7354 2.31807C67.7354 2.0841 67.5458 1.89443 67.3118 1.89443H63.8364C63.6024 1.89443 63.4127 2.0841 63.4127 2.31807V25.4556V27.3833C63.4127 27.6172 63.6024 27.8069 63.8364 27.8069H67.3118C67.5458 27.8069 67.7354 27.6172 67.7354 27.3833V2.31807Z" fill="#253A7B" stroke="#253A7B" stroke-width="0.282427"/>
<path d="M3.97526 9.6951C4.00367 9.5655 4.11846 9.47314 4.25113 9.47314H9.62804C9.80839 9.47314 9.94253 9.63988 9.90392 9.81604L6.00382 27.6089C5.97541 27.7385 5.86062 27.8309 5.72794 27.8309H0.351039C0.170691 27.8309 0.0365467 27.6642 0.0751611 27.488L3.97526 9.6951Z" fill="#253A7B"/>
<g style="mix-blend-mode:multiply">
<path d="M14.192 1.97676C14.2198 1.8465 14.3349 1.75342 14.4681 1.75342H19.7973C19.977 1.75342 20.111 1.91914 20.0734 2.09493L14.6157 27.6075C14.5878 27.7377 14.4727 27.8308 14.3395 27.8308H9.01037C8.8306 27.8308 8.69658 27.6651 8.73419 27.4893L14.192 1.97676Z" fill="#253A7B"/>
</g>
<g style="mix-blend-mode:multiply" opacity="0.8">
<path d="M23.8279 2.12489C23.7811 1.90815 23.5895 1.75342 23.3677 1.75342H18.3756C18.0757 1.75342 17.8523 2.03018 17.9155 2.32337L23.3368 27.4594C23.3835 27.6761 23.5752 27.8308 23.7969 27.8308H28.789C29.0889 27.8308 29.3124 27.5541 29.2491 27.2609L23.8279 2.12489Z" fill="#00BB56"/>
</g>
</svg>
